<?xml version="1.0" encoding="utf-8"?>
<!-- Generator: Adobe Illustrator 28.0.0, SVG Export Plug-In . SVG Version: 6.00 Build 0)  -->
<svg version="1.1" xmlns="http://www.w3.org/2000/svg" xmlns:xlink="http://www.w3.org/1999/xlink" x="0px" y="0px"
	 viewBox="0 0 4000 4000" style="enable-background:new 0 0 4000 4000;" xml:space="preserve">
<style type="text/css">
	.st0{fill:#041242;}
	.st1{fill:#0CB9EB;}
</style>
<g id="Layer_2">
</g>
<g id="Layer_1">
	<g>
		<g>
			<polygon class="st0" points="2034.4,1627.68 2034.4,1451.07 1982.3,1416.22 1929.15,1380.67 1813.16,1458.79 1813.16,1608.92 
				1760.51,1644.12 1760.51,1988.91 1865.77,1927.69 1865.77,1494.64 1929.15,1451.87 1929.15,1648.74 1928.95,1648.79 
				1928.95,1770.39 2000,1729.37 2134.24,1806.84 2134.24,1927.44 2239.49,1988.66 2239.49,1746.07 			"/>
			<polygon class="st1" points="2000,2039.31 1896.4,1979.49 1791.5,2040.51 2000,2160.91 2208.75,2040.36 2103.9,1979.34 			"/>
			<polygon class="st1" points="2069.82,1924.65 2069.82,1844.04 2000,1803.71 1930.18,1844.04 1930.18,1924.65 2000,1964.96 			"/>
		</g>
		<g>
			<g>
				<path class="st1" d="M2409.04,2350.89c-1.51-3.38-3.64-6.34-6.4-8.88c-2.77-2.54-6.11-4.6-10.04-6.11
					c-3.93-1.51-8.24-2.25-12.91-2.25c-4.7,0-8.98,0.74-12.84,2.25c-3.86,1.51-7.11,3.57-9.82,6.11c-2.67,2.54-4.8,5.5-6.31,8.88
					c-1.51,3.38-2.29,7.02-2.29,10.85c0,3.86,0.77,7.5,2.29,10.88c1.51,3.38,3.64,6.34,6.4,8.88c2.77,2.54,6.05,4.57,9.85,6.02
					c3.77,1.42,8.01,2.16,12.71,2.16c4.67,0,8.98-0.74,12.91-2.16c3.93-1.45,7.27-3.48,10.04-6.02c2.77-2.54,4.89-5.5,6.4-8.88
					c1.51-3.38,2.29-7.02,2.29-10.88C2411.32,2357.91,2410.55,2354.27,2409.04,2350.89z"/>
				<path class="st1" d="M2404.69,2406.86v205.36h-50.66v-205.81c1.61,0.8,3.28,1.54,4.99,2.19c6.37,2.38,13.29,3.6,20.66,3.6
					c7.21,0,14.13-1.19,20.69-3.54C2401.86,2408.11,2403.31,2407.53,2404.69,2406.86z"/>
			</g>
			<g>
				<g>
					<polygon class="st1" points="2172.99,2543.35 2084.17,2309.72 2172.88,2543.35 					"/>
				</g>
				<polygon class="st1" points="2198.82,2606.52 2196.44,2612.21 2149.71,2612.21 2022,2309.7 2084.17,2309.7 2172.88,2543.34 
					2172.98,2543.34 				"/>
			</g>
			<g>
				<path class="st1" d="M2368.16,2206.49l0.06-0.16l-2.9-1l-0.32,0.77l-1.26,2.99l-4.54,10.81l-13.45,32.09l-30.86-46.5l-1.29-1.93
					l-0.23-0.35h45.63l-9.46-3.22h-39.17c-0.03,0-0.03,0-0.06,0c-0.35,0-0.68,0.13-0.9,0.32c-0.03,0.03-0.06,0.03-0.1,0.06
					c-0.1,0.06-0.16,0.16-0.23,0.23c-0.1,0.13-0.19,0.29-0.23,0.45l-0.32,0.84l-0.45,1.06l-93.94,233.65
					c-0.1,0.1-0.16,0.19-0.26,0.29c-0.16,0.29-0.23,0.58-0.23,0.9l-21.47,53.42c-0.1,0.1-0.16,0.19-0.23,0.32
					c-0.1,0.19-0.16,0.45-0.19,0.68l-19.7,49.01l-0.06,0.13l-0.55,1.38c-0.06,0.19-0.13,0.39-0.13,0.61v0.13
					c0.03,0.16,0.06,0.29,0.1,0.42l23.3,68.32l0.16,0.51c0.19,0.64,0.8,1.09,1.45,1.09c0.03,0,0.03,0,0.06,0
					c0.64,0,1.22-0.39,1.48-0.97l29.22-69.68c0.55-0.06,1.06-0.39,1.32-0.87c0.26-0.55,0.23-1.16-0.13-1.64l-0.06-0.13l65.85-157.08
					c0.35-0.13,0.64-0.35,0.84-0.68c0.26-0.45,0.29-1,0.1-1.48l52.14-124.35c0.23-0.16,0.42-0.39,0.51-0.64
					c0.16-0.29,0.19-0.61,0.16-0.93l14.42-34.47l4.8-11.42l1.26-2.99H2368.16z M2286.65,2264.93l30.38,51.49l-52.33,3.12
					L2286.65,2264.93z M2237.82,2386.39l27.13,51.78l-47.18-1.96L2237.82,2386.39z M2215.65,2441.55l28.29,48.82l-48.02,0.29
					L2215.65,2441.55z M2197.98,2604.43l-1.38,3.28l-13.48-39.58l-7.92-23.24l48.4-1.61L2197.98,2604.43z M2175.39,2541.67
					l18.47-45.92l30.19,44.32L2175.39,2541.67z M2226.08,2537.36l-29.61-43.51l47.98-0.26L2226.08,2537.36z M2246.58,2488.5
					l-28.42-49.05l48.15,2L2246.58,2488.5z M2268.11,2437.21l-27.68-52.75l50.14-0.84L2268.11,2437.21z M2239.88,2381.24
					l22.79-56.61l28.29,55.77L2239.88,2381.24z M2293.11,2377.54l-27.81-54.81l52.1-3.12L2293.11,2377.54z M2319.6,2314.43
					l-30.44-51.59l54.29-5.31L2319.6,2314.43z M2288.77,2259.65l21.95-54.61l32.73,49.24L2288.77,2259.65z"/>
			</g>
			<polygon class="st1" points="2368.23,2206.33 2368.16,2206.49 2366.94,2209.45 2362.27,2220.91 2359.22,2219.91 2314.9,2205.49 
				2311.14,2204.27 2304.15,2213.31 2308.37,2202.98 2308.85,2201.79 2309.43,2200.31 2314.42,2188.05 2349.56,2199.99 
				2359.02,2203.21 2365.33,2205.33 			"/>
			<line class="st1" x1="2365.57" y1="2206.74" x2="2381.8" y2="2269.8"/>
			<polygon class="st1" points="2380.56,2259.53 2366.34,2284.16 2394.78,2284.16 			"/>
			<g>
				<line class="st1" x1="2371.32" y1="2282.43" x2="2351.8" y2="2356.52"/>
				<line class="st1" x1="2389.19" y1="2282.43" x2="2408.71" y2="2356.52"/>
			</g>
			<g>
				<path class="st0" d="M828.57,2612.21v-302.5h134.57c14.83,0,28.25,1.89,40.26,5.67c12.01,3.78,22.28,9.27,30.81,16.46
					c8.52,7.19,15.09,16.02,19.68,26.47c4.6,10.46,6.9,22.43,6.9,35.93c0,6.23-1,12.38-3,18.46c-2,6.09-4.67,11.68-8.01,16.8
					c-3.34,5.12-7.23,9.64-11.68,13.57c-4.45,3.93-9.12,6.86-14.01,8.78c7.26,2.52,14.12,6.04,20.57,10.57
					c6.45,4.53,12.12,9.83,17.02,15.9c4.89,6.08,8.75,12.83,11.57,20.24c2.82,7.41,4.23,15.2,4.23,23.36
					c0,16.31-2.97,30.18-8.9,41.59c-5.93,11.42-13.68,20.72-23.24,27.92c-9.57,7.19-20.43,12.46-32.59,15.79
					c-12.16,3.34-24.47,5-36.92,5H828.57z M898.86,2430.93h60.06c3.71,0,7.34-0.74,10.9-2.22c3.56-1.48,6.74-3.6,9.56-6.34
					c2.82-2.74,5.12-6.04,6.9-9.9c1.78-3.85,2.67-8.15,2.67-12.9c0-4.6-0.85-8.86-2.56-12.79c-1.71-3.93-3.97-7.3-6.78-10.12
					c-2.82-2.81-6-5-9.56-6.56c-3.56-1.56-7.19-2.34-10.9-2.34h-60.28V2430.93z M968.7,2554.16c3.7,0,7.67-0.7,11.9-2.11
					c4.23-1.41,8.12-3.56,11.68-6.45c3.56-2.89,6.52-6.56,8.9-11.01c2.37-4.45,3.56-9.71,3.56-15.79c0-5.34-0.97-10.12-2.89-14.35
					c-1.93-4.23-4.53-7.86-7.78-10.9c-3.26-3.04-7.08-5.38-11.46-7.01c-4.38-1.63-9.01-2.44-13.9-2.44h-69.84v70.06H968.7z"/>
				<path class="st0" d="M1316.36,2309.71h70.51v185.73c0,17.94-3.15,34.48-9.45,49.6c-6.3,15.12-15.24,28.22-26.8,39.26
					c-11.57,11.05-25.51,19.65-41.82,25.8c-16.32,6.15-34.55,9.23-54.72,9.23c-18.68,0-36.15-2.86-52.38-8.56
					s-30.33-13.94-42.26-24.69c-11.94-10.75-21.32-23.76-28.14-39.04c-6.82-15.27-10.23-32.47-10.23-51.6v-185.73h70.29v185.95
					c0,9.05,1.37,17.46,4.12,25.25c2.74,7.79,6.75,14.49,12.01,20.13c5.26,5.64,11.79,10.09,19.57,13.35
					c7.79,3.26,16.79,4.89,27.03,4.89c9.93,0,18.76-1.59,26.47-4.78c7.71-3.19,14.23-7.63,19.57-13.34
					c5.34-5.71,9.38-12.42,12.12-20.13c2.74-7.71,4.12-16.09,4.12-25.13V2309.71z"/>
				<path class="st0" d="M1446.26,2309.71h70.51v302.5h-70.51V2309.71z"/>
				<path class="st0" d="M1579.72,2309.71h70.51v242h126.79v60.5h-197.3V2309.71z"/>
				<path class="st0" d="M1845.97,2370.21h-84.52v-60.5h239.33v60.5h-84.52v242h-70.29V2370.21z"/>
				<path class="st1" d="M2489.46,2309.71h207.3v48.04h-151.92v80.96h131.23v47.6h-131.23v78.07h153.92v47.82h-209.31V2309.71z"/>
				<path class="st1" d="M3039.53,2533.25h0.67l72.51-223.77h58.72l-104.1,302.73h-53.83l-66.95-211.75l-66.95,211.75h-53.61
					l-103.88-302.73h58.5l72.51,223.77h0.89l63.39-221.76h58.5L3039.53,2533.25z"/>
			</g>
		</g>
	</g>
</g>
</svg>
